<svg xmlns="http://www.w3.org/2000/svg" version="1.1" xmlns:xlink="http://www.w3.org/1999/xlink" xmlns:svgjs="http://svgjs.com/svgjs" width="1920" height="1080" preserveAspectRatio="none" viewBox="0 0 1920 1080"><g mask="url(&quot;#SvgjsMask1053&quot;)" fill="none"><rect width="1920" height="1080" x="0" y="0" fill="#0e2a47"></rect><path d="M1303.274,406.112C1350.363,407.702,1396.756,388.518,1422.027,348.752C1449.188,306.012,1454.564,251.315,1429.672,207.215C1404.395,162.434,1354.693,138.964,1303.274,138.367C1250.709,137.757,1195.974,157.596,1171.69,204.22C1148.685,248.389,1170.45,299.456,1197.642,341.178C1221.83,378.29,1259,404.617,1303.274,406.112" fill="rgba(28, 83, 142, 0.4)" class="triangle-float3"></path><path d="M236.033,748.553C341.193,748.706,434.23,680.088,481.534,586.168C524.615,500.633,502.943,400.839,452.019,319.728C404.652,244.283,325.1,193.487,236.033,195.138C149.605,196.74,79.339,254.207,33.481,327.484C-16.047,406.625,-48.704,501.322,-8.233,585.455C37.255,680.016,131.1,748.4,236.033,748.553" fill="rgba(28, 83, 142, 0.4)" class="triangle-float2"></path><path d="M1722.212135432797-25.156659036739377L1653.2957552656442 297.5568166366179 1929.1545159926613 213.2183297332056z" fill="rgba(28, 83, 142, 0.4)" class="triangle-float1"></path><path d="M135.803,1079.772C179.527,1079.869,219.793,1056.574,241.975,1018.895C264.493,980.645,265.713,933.82,244.765,894.688C222.544,853.179,182.851,818.779,135.803,820.564C90.886,822.268,61.406,862.77,40.279,902.445C20.734,939.15,10.722,981.815,30.444,1018.426C51.101,1056.773,92.246,1079.675,135.803,1079.772" fill="rgba(28, 83, 142, 0.4)" class="triangle-float1"></path><path d="M1273.983415716798 1081.5616659085454L1080.9376482965556 833.9883816127317 973.7076813715555 1086.606352880196z" fill="rgba(28, 83, 142, 0.4)" class="triangle-float2"></path><path d="M149.165,1490.367C255.5,1496.917,356.777,1435.089,407.488,1341.395C456.059,1251.654,441.155,1141.189,383.852,1056.756C332.982,981.801,239.686,964.233,149.165,960.771C49.647,956.965,-68.044,951.856,-118.816,1037.533C-170.079,1124.04,-110.56,1226.101,-59.348,1312.638C-9.497,1396.877,51.466,1484.349,149.165,1490.367" fill="rgba(28, 83, 142, 0.4)" class="triangle-float1"></path><path d="M693.089,1086.305C754.43,1085.314,792.958,1027.171,822.451,973.376C850.439,922.327,872.254,862.469,843.588,811.798C814.602,760.561,751.952,745.478,693.089,744.71C632.495,743.92,566.318,755.526,535.631,807.781C504.669,860.506,526.19,924.448,556.281,977.675C586.995,1032.005,630.686,1087.313,693.089,1086.305" fill="rgba(28, 83, 142, 0.4)" class="triangle-float1"></path><path d="M1579.261,833.309C1655.695,828.899,1720.177,783.555,1759.994,718.163C1801.758,649.573,1824.811,564.772,1785.365,494.823C1745.379,423.916,1660.662,398.312,1579.261,397.671C1496.497,397.02,1412.208,421.906,1367.46,491.534C1319.178,566.66,1311.357,665.423,1358.398,741.332C1403.423,813.988,1493.927,838.232,1579.261,833.309" fill="rgba(28, 83, 142, 0.4)" class="triangle-float1"></path><path d="M922.854084153073 449.8860991124257L711.3690316469183 487.17661988580716 873.0473390600679 785.7589382583485z" fill="rgba(28, 83, 142, 0.4)" class="triangle-float2"></path></g><defs><mask id="SvgjsMask1053"><rect width="1920" height="1080" fill="#ffffff"></rect></mask><style>
            @keyframes float1 {
                0%{transform: translate(0, 0)}
                50%{transform: translate(-10px, 0)}
                100%{transform: translate(0, 0)}
            }

            .triangle-float1 {
                animation: float1 5s infinite;
            }

            @keyframes float2 {
                0%{transform: translate(0, 0)}
                50%{transform: translate(-5px, -5px)}
                100%{transform: translate(0, 0)}
            }

            .triangle-float2 {
                animation: float2 4s infinite;
            }

            @keyframes float3 {
                0%{transform: translate(0, 0)}
                50%{transform: translate(0, -10px)}
                100%{transform: translate(0, 0)}
            }

            .triangle-float3 {
                animation: float3 6s infinite;
            }
        </style></defs></svg>